<svg width="39" height="39" viewBox="0 0 39 39" fill="none" xmlns="http://www.w3.org/2000/svg">
<path d="M8.125 16.1246C8.125 24.0088 15.0223 30.5288 18.0752 33.0285C18.5121 33.3862 18.7332 33.5672 19.0591 33.659C19.313 33.7305 19.6865 33.7305 19.9404 33.659C20.2669 33.5671 20.4865 33.3878 20.925 33.0287C23.978 30.529 30.8749 24.0096 30.8749 16.1254C30.8749 13.1417 29.6765 10.2798 27.5433 8.17005C25.41 6.06026 22.517 4.875 19.5001 4.875C16.4833 4.875 13.5899 6.06044 11.4567 8.17023C9.32343 10.28 8.125 13.1409 8.125 16.1246Z" stroke="#FDCA30" stroke-width="2" stroke-linecap="round" stroke-linejoin="round"/>
<path d="M16.25 14.625C16.25 16.4199 17.7051 17.875 19.5 17.875C21.2949 17.875 22.75 16.4199 22.75 14.625C22.75 12.8301 21.2949 11.375 19.5 11.375C17.7051 11.375 16.25 12.8301 16.25 14.625Z" stroke="#FDCA30" stroke-width="2" stroke-linecap="round" stroke-linejoin="round"/>
</svg>
