<svg width="33" height="32" viewBox="0 0 33 32" fill="none" xmlns="http://www.w3.org/2000/svg">
<path d="M5.48569 7.99999L13.8619 14.1497L13.8647 14.1519C14.7947 14.815 15.26 15.1468 15.7697 15.2749C16.2202 15.3882 16.6937 15.3882 17.1442 15.2749C17.6543 15.1467 18.1209 14.814 19.0526 14.1497C19.0526 14.1497 24.4252 10.1412 27.4285 7.99999M4.11426 21.0669V10.9336C4.11426 9.44011 4.11426 8.69282 4.41321 8.12239C4.67618 7.62062 5.09548 7.21297 5.61158 6.95731C6.19831 6.66666 6.96695 6.66666 8.5031 6.66666H24.4117C25.9478 6.66666 26.7148 6.66666 27.3015 6.95731C27.8176 7.21297 28.2383 7.62062 28.5013 8.12239C28.8 8.69226 28.8 9.43865 28.8 10.9292V21.0714C28.8 22.562 28.8 23.3073 28.5013 23.8772C28.2383 24.3789 27.8176 24.7873 27.3015 25.043C26.7154 25.3333 25.9488 25.3333 24.4156 25.3333H8.49859C6.96545 25.3333 6.19773 25.3333 5.61158 25.043C5.09548 24.7873 4.67618 24.3789 4.41321 23.8772C4.11426 23.3067 4.11426 22.5604 4.11426 21.0669Z" stroke="#FDCA30" stroke-width="2" stroke-linecap="round" stroke-linejoin="round"/>
</svg>
