<svg width="29" height="31" viewBox="0 0 29 31" fill="none" xmlns="http://www.w3.org/2000/svg">
<path d="M11.4821 5.49891C11.1151 4.51812 10.2265 3.875 9.23832 3.875H5.91447C4.65003 3.875 3.625 4.97046 3.625 6.3221C3.625 17.8111 12.338 27.125 23.0858 27.125C24.3502 27.125 25.375 26.0292 25.375 24.6775L25.3756 21.1239C25.3756 20.0675 24.7741 19.1178 23.8566 18.7255L20.6709 17.3638C19.8467 17.0114 18.9083 17.17 18.2264 17.7774L17.4043 18.5105C16.444 19.3658 15.0312 19.2978 14.1474 18.353L11.8323 15.8759C10.9485 14.9312 10.8831 13.4221 11.6833 12.3957L12.3689 11.5169C12.9372 10.7879 13.0868 9.78458 12.7572 8.90358L11.4821 5.49891Z" stroke="#FDCA30" stroke-width="2" stroke-linecap="round" stroke-linejoin="round"/>
</svg>
