<svg width="34" height="33" viewBox="0 0 34 33" fill="none" xmlns="http://www.w3.org/2000/svg">
<path d="M14.1669 5.5H10.2002C8.61342 5.5 7.81942 5.5 7.21334 5.79973C6.68021 6.06338 6.24708 6.48378 5.97544 7.00122C5.66663 7.58948 5.66663 8.36012 5.66663 9.90027V23.1003C5.66663 24.6404 5.66663 25.4101 5.97544 25.9983C6.24708 26.5158 6.68021 26.9369 7.21334 27.2006C7.81883 27.5 8.61187 27.5 10.1956 27.5H23.8043C25.388 27.5 26.1799 27.5 26.7854 27.2006C27.3186 26.9369 27.7531 26.5154 28.0248 25.9979C28.3333 25.4103 28.3333 24.6414 28.3333 23.1043V19.25M22.6666 6.875L14.1666 15.125V19.25H18.4166L26.9166 11M22.6666 6.875L26.9166 2.75L31.1666 6.875L26.9166 11M22.6666 6.875L26.9166 11" stroke="black" stroke-width="1.5" stroke-linecap="round" stroke-linejoin="round"/>
</svg>
