<svg width="40" height="37" viewBox="0 0 40 37" fill="none" xmlns="http://www.w3.org/2000/svg">
<path d="M16.667 7.70832H13.667C11.8002 7.70832 10.8661 7.70832 10.153 8.04439C9.52583 8.34 9.01626 8.81134 8.69669 9.39151C8.33337 10.0511 8.33337 10.9151 8.33337 12.642V24.3586C8.33337 26.0855 8.33337 26.9484 8.69669 27.608C9.01626 28.1881 9.52583 28.6603 10.153 28.9559C10.8654 29.2917 11.7984 29.2917 13.6616 29.2917H26.3385C28.2017 29.2917 29.1334 29.2917 29.8457 28.9559C30.4729 28.6603 30.9842 28.1877 31.3038 27.6075C31.6667 26.9486 31.6667 26.0865 31.6667 24.3631V21.5833M33.3334 13.875V6.16666M33.3334 6.16666H25M33.3334 6.16666L21.6667 16.9583" stroke="black" stroke-width="2" stroke-linecap="round" stroke-linejoin="round"/>
</svg>
