<svg width="74" height="46" viewBox="0 0 74 46" fill="none" xmlns="http://www.w3.org/2000/svg">
<path d="M58.3906 4.625H47.4062V21.9688H69.375L58.3906 4.625Z" fill="#FDCA30"/>
<path d="M18.5 18.5L22.5994 21.9687L33.5313 12.7188" stroke="white"/>
<path d="M64.5 38.5C64.5 42.366 61.366 45.5 57.5 45.5C53.634 45.5 50.5 42.366 50.5 38.5C50.5 34.634 53.634 31.5 57.5 31.5C61.366 31.5 64.5 34.634 64.5 38.5Z" stroke="white"/>
<path d="M48.5625 21.9688H72.8438V37H64.6541C64.7172 37.376 64.75 37.7623 64.75 38.1562H74V20.8125H47.4062V38.1562H50.875C50.875 37.7623 50.9078 37.376 50.9709 37H48.5625V21.9688Z" fill="white"/>
<circle cx="20.5" cy="38.5" r="7" stroke="white"/>
<path d="M4.625 1.15625H47.4062V37H27.6541C27.7172 37.376 27.75 37.7623 27.75 38.1562H48.5625V0H3.46875V38.1562H13.875C13.875 37.7623 13.9078 37.376 13.9709 37H4.625V1.15625Z" fill="white"/>
<line x1="30.0625" y1="33.0312" x2="43.9375" y2="33.0312" stroke="white"/>
<line x1="5.05413e-08" y1="33.0312" x2="11.5625" y2="33.0312" stroke="white"/>
</svg>
