<svg width="64" height="70" viewBox="0 0 64 70" fill="none" xmlns="http://www.w3.org/2000/svg">
<path d="M12.8921 8.44922H49.7898" stroke="black"/>
<path d="M12.8921 12.9649H49.7898" stroke="black"/>
<path d="M16.8458 18.6103H45.8368" stroke="black"/>
<path d="M22.1166 26.5138H52.4255" stroke="black"/>
<path d="M8.93883 34.4167H39.2477" stroke="black"/>
<path d="M8.93883 40.0621H24.7522" stroke="black"/>
<path d="M28.7055 40.0621H39.2477" stroke="black"/>
<path d="M33.9768 61.5321C36.1731 54.946 40.6973 45.0483 41.2244 58.145C41.2244 61.5321 44.5189 51.3709 47.8134 59.8387C48.3781 61.2905 49.7901 61.5322 53.7434 55.3225" stroke="black"/>
<path d="M41.8834 34.4167H52.4255" stroke="black"/>
<path d="M62.2869 0.583313H1.7131V69.4166H62.2869V0.583313Z" stroke="black"/>
<path d="M27.3878 55.887C27.3878 60.5636 22.9629 64.3546 17.5045 64.3546C12.0461 64.3546 7.62118 60.5636 7.62118 55.887C7.62118 51.2104 12.0461 47.4192 17.5045 47.4192C22.9629 47.4192 27.3878 51.2104 27.3878 55.887Z" fill="#FDCA30"/>
</svg>
