<svg width="56" height="56" viewBox="0 0 56 56" fill="none" xmlns="http://www.w3.org/2000/svg">
<circle cx="28.0001" cy="27.9998" r="6.32258" fill="#FDCA30"/>
<path fill-rule="evenodd" clip-rule="evenodd" d="M43.1399 12.4854C43.3554 12.6957 43.5665 12.9104 43.7731 13.1295L34.8224 22.0802C34.6248 21.8526 34.416 21.6351 34.1969 21.4283L43.1399 12.4854ZM12.2267 13.1295C12.4333 12.9104 12.6444 12.6957 12.8599 12.4854L21.8029 21.4284C21.5838 21.6351 21.375 21.8527 21.1774 22.0802L12.2267 13.1295ZM42.87 43.7728C43.089 43.5662 43.3038 43.3551 43.5141 43.1396L34.571 34.1965C34.3643 34.4156 34.1467 34.6244 33.9192 34.822L42.87 43.7728ZM13.1298 43.7728L22.0806 34.8219C21.8531 34.6243 21.6355 34.4156 21.4288 34.1964L12.4856 43.1396C12.696 43.3551 12.9107 43.5662 13.1298 43.7728Z" fill="white"/>
<circle cx="49.6774" cy="49.6776" r="5.82258" stroke="white"/>
<circle cx="6.32258" cy="49.6776" r="5.82258" stroke="white"/>
<circle cx="6.32258" cy="6.32258" r="5.82258" stroke="white"/>
<circle cx="49.6774" cy="6.32258" r="5.82258" stroke="white"/>
</svg>
