<svg width="77" height="71" viewBox="0 0 77 71" fill="none" xmlns="http://www.w3.org/2000/svg">
<g clip-path="url(#clip0_30_85)">
<path d="M38.5001 43.5159C43.3014 43.5159 47.1937 39.927 47.1937 35.4998C47.1937 31.0726 43.3014 27.4836 38.5001 27.4836C33.6988 27.4836 29.8066 31.0726 29.8066 35.4998C29.8066 39.927 33.6988 43.5159 38.5001 43.5159Z" fill="#FDCA30"/>
<path fill-rule="evenodd" clip-rule="evenodd" d="M59.3174 15.8297C59.6137 16.0963 59.9039 16.3686 60.188 16.6463L47.8808 27.9945C47.6091 27.706 47.322 27.4302 47.0207 27.168L59.3174 15.8297ZM16.8117 16.6463C17.0958 16.3686 17.386 16.0963 17.6824 15.8297L29.979 27.1682C29.6777 27.4302 29.3906 27.7061 29.1189 27.9945L16.8117 16.6463ZM58.9462 55.4977C59.2474 55.2357 59.5427 54.9681 59.8319 54.6949L47.5351 43.3563C47.2509 43.6341 46.9517 43.8988 46.6389 44.1493L58.9462 55.4977ZM18.0535 55.4977L30.3608 44.1492C30.048 43.8987 29.7488 43.6341 29.4646 43.3562L17.1677 54.6949C17.457 54.9681 17.7522 55.2357 18.0535 55.4977Z" fill="black"/>
<path d="M68.3064 70.3663C72.728 70.3663 76.3125 67.0612 76.3125 62.9841C76.3125 58.9071 72.728 55.6019 68.3064 55.6019C63.8848 55.6019 60.3004 58.9071 60.3004 62.9841C60.3004 67.0612 63.8848 70.3663 68.3064 70.3663Z" stroke="black"/>
<path d="M8.69355 70.3663C13.1152 70.3663 16.6996 67.0612 16.6996 62.9841C16.6996 58.9071 13.1152 55.6019 8.69355 55.6019C4.27193 55.6019 0.6875 58.9071 0.6875 62.9841C0.6875 67.0612 4.27193 70.3663 8.69355 70.3663Z" stroke="black"/>
<path d="M8.69355 15.3983C13.1152 15.3983 16.6996 12.0932 16.6996 8.01611C16.6996 3.93903 13.1152 0.633911 8.69355 0.633911C4.27193 0.633911 0.6875 3.93903 0.6875 8.01611C0.6875 12.0932 4.27193 15.3983 8.69355 15.3983Z" stroke="black"/>
<path d="M68.3064 15.3983C72.728 15.3983 76.3125 12.0932 76.3125 8.01611C76.3125 3.93903 72.728 0.633911 68.3064 0.633911C63.8848 0.633911 60.3004 3.93903 60.3004 8.01611C60.3004 12.0932 63.8848 15.3983 68.3064 15.3983Z" stroke="black"/>
</g>
<defs>
<clipPath id="clip0_30_85">
<rect width="77" height="71" fill="white"/>
</clipPath>
</defs>
</svg>
