<svg width="116" height="63" viewBox="0 0 116 63" fill="none" xmlns="http://www.w3.org/2000/svg">
<g clip-path="url(#clip0_30_75)">
<path d="M91.5312 6.33423H74.3124V30.0877H108.75L91.5312 6.33423Z" fill="#FDCA30"/>
<path d="M29 25.337L35.4261 30.0876L52.5626 17.4193" stroke="black"/>
<path d="M101.108 52.7283C101.108 58.023 96.1954 62.3152 90.1351 62.3152C84.0749 62.3152 79.1622 58.023 79.1622 52.7283C79.1622 47.4335 84.0749 43.1413 90.1351 43.1413C96.1954 43.1413 101.108 47.4335 101.108 52.7283Z" stroke="black"/>
<path d="M76.125 30.0877H114.188V50.6739H101.35C101.449 51.1889 101.5 51.7179 101.5 52.2574H116V28.5041H74.3124V52.2574H79.75C79.75 51.7179 79.8014 51.1889 79.9003 50.6739H76.125V30.0877Z" fill="black"/>
<path d="M32.1351 62.3152C38.1953 62.3152 43.1081 58.023 43.1081 52.7283C43.1081 47.4335 38.1953 43.1413 32.1351 43.1413C26.0749 43.1413 21.1622 47.4335 21.1622 52.7283C21.1622 58.023 26.0749 62.3152 32.1351 62.3152Z" stroke="black"/>
<path d="M7.25 1.58356H74.3124V50.6739H43.3497C43.4486 51.1889 43.5 51.7179 43.5 52.2574H76.125V0H5.4375V52.2574H21.75C21.75 51.7179 21.8014 51.1889 21.9003 50.6739H7.25V1.58356Z" fill="black"/>
<path d="M47.125 45.2384H68.875" stroke="black"/>
<path d="M0 45.2384H18.125" stroke="black"/>
</g>
<defs>
<clipPath id="clip0_30_75">
<rect width="116" height="63" fill="white"/>
</clipPath>
</defs>
</svg>
